<svg width="18" height="53" viewBox="0 0 18 53" fill="none" xmlns="http://www.w3.org/2000/svg">
<path fill-rule="evenodd" clip-rule="evenodd" d="M4 3C4 1.89543 4.89543 1 6 1H12C13.1046 1 14 1.89543 14 3V15H13V19H14V36H13V40.7324C12.7058 40.9026 12.3643 41 12 41H6C5.63571 41 5.29417 40.9026 5 40.7324V36H4V19H5V15H4V3Z" fill="#D9D9D9"/>
<rect width="18" height="4" fill="#D9D9D9"/>
<rect x="4" y="10" width="4" height="1" fill="#767474"/>
<rect x="7" y="21" width="4" height="13" rx="2" fill="#767474"/>
<rect x="4" y="12" width="4" height="1" fill="#767474"/>
<rect x="5" y="37" width="8" height="1" fill="#744141"/>
<rect x="5" y="39" width="8" height="1" fill="#744141"/>
<rect x="4" y="8" width="4" height="1" fill="#767474"/>
<rect x="10" y="10" width="4" height="1" fill="#767474"/>
<rect x="10" y="12" width="4" height="1" fill="#767474"/>
<rect x="10" y="8" width="4" height="1" fill="#767474"/>
<path d="M4 40H14V52C14 52.5523 13.5523 53 13 53H5C4.44772 53 4 52.5523 4 52V40Z" fill="#D9D9D9"/>
</svg>
